<svg xmlns="http://www.w3.org/2000/svg" width="123.659" height="82.439" viewBox="0 0 123.659 82.439">
  <path id="Icon_awesome-ticket-alt" data-name="Icon awesome-ticket-alt" d="M27.48,25.11h68.7v41.22H27.48Zm85.874,20.61a10.3,10.3,0,0,0,10.3,10.3v20.61a10.3,10.3,0,0,1-10.3,10.3H10.3A10.3,10.3,0,0,1,0,76.634V56.024a10.3,10.3,0,0,0,10.3-10.3A10.3,10.3,0,0,0,0,35.415V14.8A10.3,10.3,0,0,1,10.3,4.5H113.354a10.3,10.3,0,0,1,10.3,10.3v20.61A10.3,10.3,0,0,0,113.354,45.72Zm-10.3-22.327A5.152,5.152,0,0,0,97.9,18.24H25.762a5.152,5.152,0,0,0-5.152,5.152V68.047A5.152,5.152,0,0,0,25.762,73.2H97.9a5.152,5.152,0,0,0,5.152-5.152Z" transform="translate(0 -4.5)" fill="#003a44"/>
</svg>
