<svg xmlns="http://www.w3.org/2000/svg" width="30.315" height="20.21" viewBox="0 0 30.315 20.21">
  <path id="Icon_awesome-ticket-alt" data-name="Icon awesome-ticket-alt" d="M6.737,9.552H23.578v10.1H6.737ZM27.789,14.6a2.526,2.526,0,0,0,2.526,2.526v5.052a2.526,2.526,0,0,1-2.526,2.526H2.526A2.526,2.526,0,0,1,0,22.184V17.131A2.526,2.526,0,0,0,2.526,14.6,2.526,2.526,0,0,0,0,12.079V7.026A2.526,2.526,0,0,1,2.526,4.5H27.789a2.526,2.526,0,0,1,2.526,2.526v5.052A2.526,2.526,0,0,0,27.789,14.6ZM25.262,9.131A1.263,1.263,0,0,0,24,7.868H6.316A1.263,1.263,0,0,0,5.052,9.131V20.079a1.263,1.263,0,0,0,1.263,1.263H24a1.263,1.263,0,0,0,1.263-1.263Z" transform="translate(0 -4.5)" fill="#003a44"/>
</svg>
