<svg id="Icon_awesome-home" data-name="Icon awesome-home" xmlns="http://www.w3.org/2000/svg" width="32.523" height="25" viewBox="0 0 32.523 25">
  <path id="Icon_awesome-home-2" data-name="Icon awesome-home" d="M15.829,8.739,5.42,17.214v9.147a.9.9,0,0,0,.9.893l6.327-.016a.9.9,0,0,0,.9-.893V21a.9.9,0,0,1,.9-.893h3.613a.9.9,0,0,1,.9.893V26.34a.888.888,0,0,0,.264.633.909.909,0,0,0,.64.263l6.325.017a.9.9,0,0,0,.9-.893V17.208L16.693,8.739A.694.694,0,0,0,15.829,8.739ZM32.272,14.5l-4.72-3.846V2.923a.674.674,0,0,0-.678-.67H23.713a.674.674,0,0,0-.678.67V6.976L17.98,2.865a2.734,2.734,0,0,0-3.444,0L.245,14.5a.664.664,0,0,0-.09.943l1.44,1.73a.683.683,0,0,0,.955.091L15.829,6.451a.694.694,0,0,1,.864,0L29.974,17.264a.683.683,0,0,0,.954-.089l1.44-1.73a.664.664,0,0,0-.1-.945Z" transform="translate(0.001 -2.254)" fill="#003a44"/>
</svg>
