<svg xmlns="http://www.w3.org/2000/svg" width="117.771" height="82.439" viewBox="0 0 117.771 82.439">
  <path id="Icon_awesome-user-friends" data-name="Icon awesome-user-friends" d="M35.331,43.47a20.61,20.61,0,1,0-20.61-20.61A20.6,20.6,0,0,0,35.331,43.47Zm14.132,5.889H47.936a28.455,28.455,0,0,1-25.21,0H21.2A21.2,21.2,0,0,0,0,70.557v5.3a8.835,8.835,0,0,0,8.833,8.833h53a8.835,8.835,0,0,0,8.833-8.833v-5.3A21.2,21.2,0,0,0,49.464,49.358ZM88.328,43.47A17.666,17.666,0,1,0,70.662,25.8,17.67,17.67,0,0,0,88.328,43.47Zm8.833,5.889h-.7a23.2,23.2,0,0,1-16.267,0h-.7a20.439,20.439,0,0,0-10.25,2.834,26.93,26.93,0,0,1,7.305,18.365v7.066c0,.4-.092.791-.11,1.178h32.5a8.835,8.835,0,0,0,8.833-8.833,20.6,20.6,0,0,0-20.61-20.61Z" transform="translate(0 -2.25)" fill="#003a44"/>
</svg>
