<svg id="Icon_awesome-home" data-name="Icon awesome-home" xmlns="http://www.w3.org/2000/svg" width="287.523" height="221" viewBox="0 0 287.523 221">
  <path id="Icon_awesome-home-2" data-name="Icon awesome-home" d="M139.949,59.587,47.923,134.5V215.36a7.94,7.94,0,0,0,7.986,7.894l55.933-.143a7.94,7.94,0,0,0,7.946-7.894V168a7.94,7.94,0,0,1,7.986-7.894h31.945A7.94,7.94,0,0,1,167.705,168v47.185a7.847,7.847,0,0,0,2.33,5.6,8.034,8.034,0,0,0,5.656,2.321l55.913.153a7.94,7.94,0,0,0,7.986-7.894V134.449L147.585,59.587A6.14,6.14,0,0,0,139.949,59.587Zm145.363,50.92-41.728-34V8.174a5.955,5.955,0,0,0-5.99-5.92H209.643a5.955,5.955,0,0,0-5.99,5.92V44L158.966,7.656a24.175,24.175,0,0,0-30.447,0L2.173,110.506a5.873,5.873,0,0,0-.8,8.338L14.1,134.138a6.038,6.038,0,0,0,8.44.8L139.949,39.359a6.14,6.14,0,0,1,7.637,0L265,134.942a6.038,6.038,0,0,0,8.435-.789l12.728-15.294a5.874,5.874,0,0,0-.848-8.353Z" transform="translate(0.001 -2.254)" fill="#003a44"/>
</svg>
