<svg xmlns="http://www.w3.org/2000/svg" width="313.758" height="313.758" viewBox="0 0 313.758 313.758">
  <path id="Icon_metro-qrcode" data-name="Icon metro-qrcode" d="M100.62,21.538H22.181V99.977H100.62Zm19.61-19.61V119.587H2.571V1.928ZM41.79,41.148H81.01v39.22H41.79Zm254.928-19.61H218.279V99.977h78.439Zm19.61-19.61V119.587H198.669V1.928H316.328Zm-78.439,39.22h39.22v39.22h-39.22ZM100.62,217.636H22.181v78.439H100.62Zm19.61-19.61V315.685H2.571V198.026ZM41.79,237.246H81.01v39.22H41.79ZM139.84,1.928h19.61v19.61H139.84Zm19.61,19.61h19.61v19.61h-19.61Zm-19.61,19.61h19.61v19.61H139.84Zm19.61,19.61h19.61v19.61h-19.61Zm-19.61,19.61h19.61v19.61H139.84Zm19.61,19.61h19.61v19.61h-19.61Zm-19.61,19.61h19.61V139.2H139.84Zm0,39.22h19.61v19.61H139.84Zm19.61,19.61h19.61v19.61h-19.61Zm-19.61,19.61h19.61v19.61H139.84Zm19.61,19.61h19.61v19.61h-19.61Zm-19.61,19.61h19.61v19.61H139.84Zm19.61,19.61h19.61v19.61h-19.61Zm-19.61,19.61h19.61v19.61H139.84Zm19.61,19.61h19.61v19.61h-19.61ZM296.718,158.807h19.61v19.61h-19.61Zm-274.538,0H41.79v19.61H22.181ZM41.79,139.2H61.4v19.61H41.79Zm-39.22,0h19.61v19.61H2.571Zm78.439,0h19.61v19.61H81.01Zm19.61,19.61h19.61v19.61H100.62Zm19.61-19.61h19.61v19.61H120.23Zm58.83,19.61h19.61v19.61h-19.61Zm19.61-19.61h19.61v19.61h-19.61Zm19.61,19.61h19.61v19.61h-19.61Zm19.61-19.61H257.5v19.61h-19.61Zm19.61,19.61h19.61v19.61H257.5Zm19.61-19.61h19.61v19.61h-19.61Zm19.61,58.83h19.61v19.61h-19.61Zm-117.659,0h19.61v19.61h-19.61Zm19.61-19.61h19.61v19.61h-19.61Zm19.61,19.61h19.61v19.61h-19.61Zm39.22,0h19.61v19.61H257.5Zm19.61-19.61h19.61v19.61h-19.61Zm19.61,58.83h19.61v19.61h-19.61Zm-117.659,0h19.61v19.61h-19.61Zm19.61-19.61h19.61v19.61h-19.61Zm39.22,0H257.5v19.61h-19.61Zm19.61,19.61h19.61v19.61H257.5Zm19.61-19.61h19.61v19.61h-19.61Zm19.61,58.83h19.61v19.61h-19.61Zm-98.049-19.61h19.61v19.61h-19.61Zm19.61,19.61h19.61v19.61h-19.61Zm19.61-19.61H257.5v19.61h-19.61Zm19.61,19.61h19.61v19.61H257.5Zm-58.83,19.61h19.61v19.61h-19.61Zm39.22,0H257.5v19.61h-19.61Zm39.22,0h19.61v19.61h-19.61Z" transform="translate(-2.571 -1.928)" fill="#003a44"/>
</svg>
