<svg id="Lag_1" data-name="Lag 1" xmlns="http://www.w3.org/2000/svg" viewBox="0 0 234.5 192"><defs><style>.cls-1{fill:#f1f8f8;}.cls-2{fill:#d3eceb;}.cls-3{fill:#7499a3;}.cls-4{fill:#3e747f;}</style></defs><rect class="cls-1" width="234.5" height="192" rx="18.14"/><path class="cls-2" d="M0,46H234.5a0,0,0,0,1,0,0V174.12A17.88,17.88,0,0,1,216.62,192H17.88A17.88,17.88,0,0,1,0,174.12V46A0,0,0,0,1,0,46Z"/><rect class="cls-2" y="20" width="66" height="45" rx="12"/><path class="cls-3" d="M78.5,20.5h42a12,12,0,0,1,12,12v13a0,0,0,0,1,0,0h-66a0,0,0,0,1,0,0v-13A12,12,0,0,1,78.5,20.5Z"/><path class="cls-4" d="M144.5,20.5h42a12,12,0,0,1,12,12v13a0,0,0,0,1,0,0h-66a0,0,0,0,1,0,0v-13A12,12,0,0,1,144.5,20.5Z"/><rect class="cls-3" x="25" y="85" width="190" height="67" rx="12"/><circle class="cls-4" cx="62.75" cy="119.25" r="25.25"/></svg>